<svg xmlns="http://www.w3.org/2000/svg" width="880" height="660" viewBox="0 0 880 660" role="img" aria-label="Paint Correction">
  
  <defs>
    <linearGradient id="bg" x1="0" y1="0" x2="0" y2="1">
      <stop offset="0" stop-color="#17181b"/>
      <stop offset="0.55" stop-color="#0e0f11"/>
      <stop offset="1" stop-color="#070708"/>
    </linearGradient>
    <radialGradient id="light" cx="0.5" cy="0.02" r="0.9">
      <stop offset="0" stop-color="#4a4e55" stop-opacity="0.9"/>
      <stop offset="0.4" stop-color="#26282c" stop-opacity="0.5"/>
      <stop offset="1" stop-color="#000000" stop-opacity="0"/>
    </radialGradient>
    <linearGradient id="streak" x1="0" y1="0" x2="1" y2="1">
      <stop offset="0" stop-color="#ffffff" stop-opacity="0"/>
      <stop offset="0.5" stop-color="#ffffff" stop-opacity="0.10"/>
      <stop offset="1" stop-color="#ffffff" stop-opacity="0"/>
    </linearGradient>
    <linearGradient id="chrome" x1="0" y1="0" x2="0" y2="1">
      <stop offset="0" stop-color="#ffffff"/>
      <stop offset="0.45" stop-color="#e5e7eb"/>
      <stop offset="0.8" stop-color="#9ca3af"/>
      <stop offset="1" stop-color="#d1d5db"/>
    </linearGradient>
    <radialGradient id="bead" cx="0.5" cy="0.5" r="0.5">
      <stop offset="0" stop-color="#dfe4ea" stop-opacity="0.9"/>
      <stop offset="0.7" stop-color="#5b6672" stop-opacity="0.3"/>
      <stop offset="1" stop-color="#000000" stop-opacity="0.05"/>
    </radialGradient>
    <linearGradient id="floor" x1="0" y1="0" x2="0" y2="1">
      <stop offset="0" stop-color="#000000" stop-opacity="0"/>
      <stop offset="1" stop-color="#000000" stop-opacity="0.85"/>
    </linearGradient>
  </defs>
  <rect width="880" height="660" fill="url(#bg)"/>
  <ellipse cx="440" cy="-33" rx="660" ry="429" fill="url(#light)"/>
  <g transform="rotate(-18 440 330)">
    <rect x="-176" y="118.8" width="1232" height="105.60000000000001" fill="url(#streak)"/>
  </g>
  
      <g opacity="0.68">
        <circle cx="463.2" cy="316.9" r="6.3" fill="url(#bead)"/>
        <circle cx="461.3" cy="314.7" r="1.8" fill="#ffffff" opacity="0.85"/>
      </g>
      <g opacity="0.72">
        <circle cx="239.9" cy="222.5" r="10.5" fill="url(#bead)"/>
        <circle cx="236.8" cy="218.8" r="2.9" fill="#ffffff" opacity="0.85"/>
      </g>
      <g opacity="0.68">
        <circle cx="577.4" cy="293.7" r="5.1" fill="url(#bead)"/>
        <circle cx="575.8" cy="291.9" r="1.4" fill="#ffffff" opacity="0.85"/>
      </g>
      <g opacity="0.60">
        <circle cx="466.8" cy="300.1" r="6.2" fill="url(#bead)"/>
        <circle cx="465.0" cy="297.9" r="1.7" fill="#ffffff" opacity="0.85"/>
      </g>
      <g opacity="0.84">
        <circle cx="633.0" cy="303.8" r="3.0" fill="url(#bead)"/>
        <circle cx="632.1" cy="302.7" r="0.8" fill="#ffffff" opacity="0.85"/>
      </g>
      <g opacity="0.58">
        <circle cx="448.0" cy="437.4" r="7.6" fill="url(#bead)"/>
        <circle cx="445.7" cy="434.7" r="2.1" fill="#ffffff" opacity="0.85"/>
      </g>
      <g opacity="0.57">
        <circle cx="244.7" cy="296.7" r="7.2" fill="url(#bead)"/>
        <circle cx="242.6" cy="294.2" r="2.0" fill="#ffffff" opacity="0.85"/>
      </g>
      <g opacity="0.76">
        <circle cx="451.1" cy="118.7" r="10.4" fill="url(#bead)"/>
        <circle cx="447.9" cy="115.1" r="2.9" fill="#ffffff" opacity="0.85"/>
      </g>
      <g opacity="0.66">
        <circle cx="447.8" cy="298.7" r="7.2" fill="url(#bead)"/>
        <circle cx="445.7" cy="296.1" r="2.0" fill="#ffffff" opacity="0.85"/>
      </g>
      <g opacity="0.81">
        <circle cx="617.7" cy="289.6" r="4.4" fill="url(#bead)"/>
        <circle cx="616.4" cy="288.0" r="1.2" fill="#ffffff" opacity="0.85"/>
      </g>
      <g opacity="0.54">
        <circle cx="508.4" cy="261.5" r="5.3" fill="url(#bead)"/>
        <circle cx="506.8" cy="259.7" r="1.5" fill="#ffffff" opacity="0.85"/>
      </g>
      <g opacity="0.84">
        <circle cx="467.7" cy="420.3" r="3.7" fill="url(#bead)"/>
        <circle cx="466.6" cy="419.0" r="1.0" fill="#ffffff" opacity="0.85"/>
      </g>
      <g opacity="0.62">
        <circle cx="595.6" cy="146.5" r="7.4" fill="url(#bead)"/>
        <circle cx="593.3" cy="143.9" r="2.1" fill="#ffffff" opacity="0.85"/>
      </g>
      <g opacity="0.79">
        <circle cx="229.1" cy="296.3" r="8.6" fill="url(#bead)"/>
        <circle cx="226.6" cy="293.3" r="2.4" fill="#ffffff" opacity="0.85"/>
      </g>
      <g opacity="0.75">
        <circle cx="461.8" cy="155.8" r="7.5" fill="url(#bead)"/>
        <circle cx="459.6" cy="153.2" r="2.1" fill="#ffffff" opacity="0.85"/>
      </g>
      <g opacity="0.65">
        <circle cx="543.8" cy="450.4" r="10.2" fill="url(#bead)"/>
        <circle cx="540.7" cy="446.9" r="2.9" fill="#ffffff" opacity="0.85"/>
      </g>
      <g opacity="0.72">
        <circle cx="313.4" cy="406.5" r="4.0" fill="url(#bead)"/>
        <circle cx="312.2" cy="405.1" r="1.1" fill="#ffffff" opacity="0.85"/>
      </g>
      <g opacity="0.60">
        <circle cx="589.3" cy="320.2" r="5.0" fill="url(#bead)"/>
        <circle cx="587.8" cy="318.5" r="1.4" fill="#ffffff" opacity="0.85"/>
      </g>
      <g opacity="0.58">
        <circle cx="555.6" cy="176.3" r="10.7" fill="url(#bead)"/>
        <circle cx="552.4" cy="172.5" r="3.0" fill="#ffffff" opacity="0.85"/>
      </g>
      <g opacity="0.67">
        <circle cx="426.4" cy="191.4" r="10.8" fill="url(#bead)"/>
        <circle cx="423.1" cy="187.7" r="3.0" fill="#ffffff" opacity="0.85"/>
      </g>
  <rect x="0" y="409.2" width="880" height="250.8" fill="url(#floor)"/>
  <g transform="translate(52.8 567.6)">
    <text x="0" y="0" font-family="Arial, Helvetica, sans-serif" font-size="14.08" letter-spacing="4" fill="#9ca3af">AUTO GLO</text>
    <text x="0" y="39.6" font-family="Arial, Helvetica, sans-serif" font-weight="700" font-size="31.679999999999996" fill="url(#chrome)">Paint Correction</text>
  </g>
  <rect x="0" y="0" width="880" height="660" fill="none" stroke="#2a2a2a" stroke-width="1"/>
</svg>